<mxfile host="65bd71144e">
    <diagram id="28KP0s1gRTex0WmPDPye" name="Page-1">
        <mxGraphModel dx="2338" dy="1188" grid="1" gridSize="10" guides="1" tooltips="1" connect="1" arrows="1" fold="1" page="1" pageScale="1" pageWidth="850" pageHeight="1100" math="0" shadow="0">
            <root>
                <mxCell id="0"/>
                <mxCell id="1" parent="0"/>
                <mxCell id="2" value="&lt;font style=&quot;font-size: 35px;&quot;&gt;&lt;b&gt;&lt;u&gt;Source Code&lt;/u&gt;&lt;/b&gt;&lt;/font&gt;" style="ellipse;whiteSpace=wrap;html=1;fillColor=#008a00;fontColor=#ffffff;strokeColor=#005700;" vertex="1" parent="1">
                    <mxGeometry x="320" y="120" width="160" height="110" as="geometry"/>
                </mxCell>
                <mxCell id="6" value="" style="endArrow=classic;html=1;fontSize=35;exitX=0.5;exitY=1;exitDx=0;exitDy=0;strokeWidth=5;" edge="1" parent="1" source="2">
                    <mxGeometry width="50" height="50" relative="1" as="geometry">
                        <mxPoint x="410" y="320" as="sourcePoint"/>
                        <mxPoint x="400" y="320" as="targetPoint"/>
                    </mxGeometry>
                </mxCell>
                <mxCell id="7" value="&lt;b&gt;&lt;i&gt;Preprocessor&lt;/i&gt;&lt;/b&gt;" style="rounded=0;whiteSpace=wrap;html=1;fontSize=35;fillColor=#0050ef;fontColor=#ffffff;strokeColor=#001DBC;" vertex="1" parent="1">
                    <mxGeometry x="280" y="320" width="240" height="80" as="geometry"/>
                </mxCell>
                <mxCell id="8" value="" style="endArrow=classic;html=1;fontSize=35;exitX=0.5;exitY=1;exitDx=0;exitDy=0;strokeWidth=5;" edge="1" parent="1">
                    <mxGeometry width="50" height="50" relative="1" as="geometry">
                        <mxPoint x="399.40999999999997" y="400" as="sourcePoint"/>
                        <mxPoint x="399.40999999999997" y="490" as="targetPoint"/>
                    </mxGeometry>
                </mxCell>
                <mxCell id="9" value="&lt;b&gt;&lt;i&gt;Compiler&lt;/i&gt;&lt;/b&gt;" style="rounded=0;whiteSpace=wrap;html=1;fontSize=35;fillColor=#0050ef;fontColor=#ffffff;strokeColor=#001DBC;" vertex="1" parent="1">
                    <mxGeometry x="310" y="490" width="180" height="80" as="geometry"/>
                </mxCell>
                <mxCell id="10" value="" style="endArrow=classic;html=1;fontSize=35;exitX=0.5;exitY=1;exitDx=0;exitDy=0;strokeWidth=5;" edge="1" parent="1">
                    <mxGeometry width="50" height="50" relative="1" as="geometry">
                        <mxPoint x="399.41" y="570" as="sourcePoint"/>
                        <mxPoint x="399.41" y="660" as="targetPoint"/>
                    </mxGeometry>
                </mxCell>
                <mxCell id="11" value="Syntax Error" style="rhombus;whiteSpace=wrap;html=1;fontSize=35;fillColor=#d80073;fontColor=#ffffff;strokeColor=#A50040;" vertex="1" parent="1">
                    <mxGeometry x="305" y="660" width="190" height="190" as="geometry"/>
                </mxCell>
                <mxCell id="15" value="" style="endArrow=none;html=1;strokeWidth=5;fontSize=35;" edge="1" parent="1">
                    <mxGeometry width="50" height="50" relative="1" as="geometry">
                        <mxPoint x="495" y="760" as="sourcePoint"/>
                        <mxPoint x="755" y="760" as="targetPoint"/>
                    </mxGeometry>
                </mxCell>
                <mxCell id="16" value="&lt;b&gt;&lt;u&gt;Syntax Error&lt;/u&gt;&lt;/b&gt;" style="rhombus;whiteSpace=wrap;html=1;fontSize=35;fillColor=#d80073;fontColor=#ffffff;strokeColor=#A50040;" vertex="1" parent="1">
                    <mxGeometry x="305" y="660" width="190" height="190" as="geometry"/>
                </mxCell>
                <mxCell id="17" value="" style="endArrow=none;html=1;strokeWidth=5;fontSize=35;" edge="1" parent="1">
                    <mxGeometry width="50" height="50" relative="1" as="geometry">
                        <mxPoint x="750" y="760" as="sourcePoint"/>
                        <mxPoint x="750" y="170" as="targetPoint"/>
                    </mxGeometry>
                </mxCell>
                <mxCell id="18" value="" style="endArrow=classic;html=1;strokeWidth=5;fontSize=35;entryX=1;entryY=0.5;entryDx=0;entryDy=0;" edge="1" parent="1" target="2">
                    <mxGeometry width="50" height="50" relative="1" as="geometry">
                        <mxPoint x="750" y="175" as="sourcePoint"/>
                        <mxPoint x="570" y="150" as="targetPoint"/>
                    </mxGeometry>
                </mxCell>
                <mxCell id="19" value="" style="endArrow=classic;html=1;fontSize=35;exitX=0.5;exitY=1;exitDx=0;exitDy=0;strokeWidth=5;" edge="1" parent="1">
                    <mxGeometry width="50" height="50" relative="1" as="geometry">
                        <mxPoint x="399.63" y="850" as="sourcePoint"/>
                        <mxPoint x="399.63" y="940" as="targetPoint"/>
                    </mxGeometry>
                </mxCell>
                <mxCell id="20" value="&lt;b&gt;&lt;i&gt;Assembler&lt;/i&gt;&lt;/b&gt;" style="rounded=0;whiteSpace=wrap;html=1;fontSize=35;fillColor=#0050ef;fontColor=#ffffff;strokeColor=#001DBC;" vertex="1" parent="1">
                    <mxGeometry x="300" y="940" width="200" height="80" as="geometry"/>
                </mxCell>
                <mxCell id="21" value="" style="endArrow=classic;html=1;fontSize=35;exitX=0.5;exitY=1;exitDx=0;exitDy=0;strokeWidth=5;" edge="1" parent="1">
                    <mxGeometry width="50" height="50" relative="1" as="geometry">
                        <mxPoint x="399.17" y="1020" as="sourcePoint"/>
                        <mxPoint x="399.17" y="1110" as="targetPoint"/>
                    </mxGeometry>
                </mxCell>
                <mxCell id="22" value="&lt;b&gt;&lt;i&gt;Link with System Libraries&lt;/i&gt;&lt;/b&gt;" style="rounded=0;whiteSpace=wrap;html=1;fontSize=35;fillColor=#0050ef;fontColor=#ffffff;strokeColor=#001DBC;" vertex="1" parent="1">
                    <mxGeometry x="240" y="1110" width="320" height="80" as="geometry"/>
                </mxCell>
                <mxCell id="23" value="" style="endArrow=classic;html=1;fontSize=35;exitX=0.5;exitY=1;exitDx=0;exitDy=0;strokeWidth=5;" edge="1" parent="1">
                    <mxGeometry width="50" height="50" relative="1" as="geometry">
                        <mxPoint x="399.52" y="1190" as="sourcePoint"/>
                        <mxPoint x="399.52" y="1280" as="targetPoint"/>
                    </mxGeometry>
                </mxCell>
                <mxCell id="24" value="&lt;b&gt;&lt;i&gt;Execute&lt;/i&gt;&lt;/b&gt;" style="rounded=0;whiteSpace=wrap;html=1;fontSize=35;fillColor=#0050ef;fontColor=#ffffff;strokeColor=#001DBC;" vertex="1" parent="1">
                    <mxGeometry x="320" y="1280" width="160" height="80" as="geometry"/>
                </mxCell>
                <mxCell id="26" value="" style="endArrow=classic;html=1;fontSize=35;exitX=0.5;exitY=1;exitDx=0;exitDy=0;strokeWidth=5;" edge="1" parent="1">
                    <mxGeometry width="50" height="50" relative="1" as="geometry">
                        <mxPoint x="399.93" y="1360" as="sourcePoint"/>
                        <mxPoint x="399.93" y="1450.0000000000002" as="targetPoint"/>
                    </mxGeometry>
                </mxCell>
                <mxCell id="27" value="&lt;b&gt;&lt;u&gt;Logic and Data Error&lt;/u&gt;&lt;/b&gt;" style="rhombus;whiteSpace=wrap;html=1;fontSize=35;fillColor=#d80073;fontColor=#ffffff;strokeColor=#A50040;" vertex="1" parent="1">
                    <mxGeometry x="280" y="1450" width="240" height="270" as="geometry"/>
                </mxCell>
                <mxCell id="28" value="" style="endArrow=none;html=1;strokeWidth=5;fontSize=35;" edge="1" parent="1">
                    <mxGeometry width="50" height="50" relative="1" as="geometry">
                        <mxPoint x="520" y="1584.9" as="sourcePoint"/>
                        <mxPoint x="750" y="1585" as="targetPoint"/>
                    </mxGeometry>
                </mxCell>
                <mxCell id="29" value="" style="endArrow=none;html=1;strokeWidth=5;fontSize=35;" edge="1" parent="1">
                    <mxGeometry width="50" height="50" relative="1" as="geometry">
                        <mxPoint x="750" y="1590" as="sourcePoint"/>
                        <mxPoint x="750" y="760" as="targetPoint"/>
                    </mxGeometry>
                </mxCell>
                <mxCell id="30" value="" style="endArrow=none;html=1;strokeWidth=5;fontSize=35;" edge="1" parent="1">
                    <mxGeometry width="50" height="50" relative="1" as="geometry">
                        <mxPoint x="20" y="1584" as="sourcePoint"/>
                        <mxPoint x="280" y="1584.1" as="targetPoint"/>
                    </mxGeometry>
                </mxCell>
                <mxCell id="33" value="" style="endArrow=classic;html=1;fontSize=35;exitX=0.5;exitY=1;exitDx=0;exitDy=0;strokeWidth=5;" edge="1" parent="1">
                    <mxGeometry width="50" height="50" relative="1" as="geometry">
                        <mxPoint x="399.81" y="1720" as="sourcePoint"/>
                        <mxPoint x="399.81" y="1810" as="targetPoint"/>
                    </mxGeometry>
                </mxCell>
                <mxCell id="34" value="&lt;b&gt;&lt;u&gt;Output&lt;/u&gt;&lt;/b&gt;" style="shape=parallelogram;perimeter=parallelogramPerimeter;whiteSpace=wrap;html=1;fixedSize=1;fontSize=35;fillColor=#e51400;fontColor=#ffffff;strokeColor=#B20000;" vertex="1" parent="1">
                    <mxGeometry x="320" y="1810" width="160" height="60" as="geometry"/>
                </mxCell>
                <mxCell id="35" value="" style="endArrow=classic;html=1;fontSize=35;exitX=0.5;exitY=1;exitDx=0;exitDy=0;strokeWidth=5;" edge="1" parent="1">
                    <mxGeometry width="50" height="50" relative="1" as="geometry">
                        <mxPoint x="399.17" y="1870" as="sourcePoint"/>
                        <mxPoint x="399.17" y="1960" as="targetPoint"/>
                    </mxGeometry>
                </mxCell>
                <mxCell id="36" value="&lt;font style=&quot;font-size: 35px;&quot;&gt;&lt;b&gt;&lt;u&gt;Stop&lt;/u&gt;&lt;/b&gt;&lt;/font&gt;" style="ellipse;whiteSpace=wrap;html=1;fillColor=#a20025;fontColor=#ffffff;strokeColor=#6F0000;" vertex="1" parent="1">
                    <mxGeometry x="320" y="1960" width="160" height="110" as="geometry"/>
                </mxCell>
                <mxCell id="37" value="&lt;b&gt;Filename.c&lt;/b&gt;" style="rounded=1;whiteSpace=wrap;html=1;fontSize=35;fillColor=#6a00ff;fontColor=#ffffff;strokeColor=#3700CC;" vertex="1" parent="1">
                    <mxGeometry x="430" y="240" width="200" height="60" as="geometry"/>
                </mxCell>
                <mxCell id="38" value="&lt;b&gt;Filename.i&lt;/b&gt;" style="rounded=1;whiteSpace=wrap;html=1;fontSize=35;fillColor=#6a00ff;fontColor=#ffffff;strokeColor=#3700CC;" vertex="1" parent="1">
                    <mxGeometry x="440" y="420" width="200" height="60" as="geometry"/>
                </mxCell>
                <mxCell id="39" value="&lt;b&gt;Yes&lt;/b&gt;" style="rounded=1;whiteSpace=wrap;html=1;fontSize=35;fillColor=#a20025;fontColor=#ffffff;strokeColor=#6F0000;" vertex="1" parent="1">
                    <mxGeometry x="510" y="680" width="200" height="60" as="geometry"/>
                </mxCell>
                <mxCell id="40" value="&lt;b&gt;No&lt;/b&gt;" style="rounded=1;whiteSpace=wrap;html=1;fontSize=35;fillColor=#008a00;fontColor=#ffffff;strokeColor=#005700;" vertex="1" parent="1">
                    <mxGeometry x="425" y="850" width="200" height="60" as="geometry"/>
                </mxCell>
                <mxCell id="41" value="&lt;b&gt;Filename.obj&lt;/b&gt;" style="rounded=1;whiteSpace=wrap;html=1;fontSize=35;fillColor=#6a00ff;fontColor=#ffffff;strokeColor=#3700CC;" vertex="1" parent="1">
                    <mxGeometry x="440" y="1040" width="220" height="60" as="geometry"/>
                </mxCell>
                <mxCell id="42" value="&lt;b&gt;Filename.exe&lt;/b&gt;" style="rounded=1;whiteSpace=wrap;html=1;fontSize=35;fillColor=#6a00ff;fontColor=#ffffff;strokeColor=#3700CC;" vertex="1" parent="1">
                    <mxGeometry x="440" y="1210" width="220" height="60" as="geometry"/>
                </mxCell>
                <mxCell id="43" value="&lt;b&gt;Yes&lt;/b&gt;" style="rounded=1;whiteSpace=wrap;html=1;fontSize=35;fillColor=#a20025;fontColor=#ffffff;strokeColor=#6F0000;" vertex="1" parent="1">
                    <mxGeometry x="530" y="1500" width="200" height="60" as="geometry"/>
                </mxCell>
                <mxCell id="44" value="&lt;b&gt;No&lt;/b&gt;" style="rounded=1;whiteSpace=wrap;html=1;fontSize=35;fillColor=#008a00;fontColor=#ffffff;strokeColor=#005700;" vertex="1" parent="1">
                    <mxGeometry x="430" y="1730" width="200" height="60" as="geometry"/>
                </mxCell>
                <mxCell id="45" value="" style="endArrow=classic;html=1;strokeWidth=5;fontSize=35;" edge="1" parent="1">
                    <mxGeometry width="50" height="50" relative="1" as="geometry">
                        <mxPoint x="20" y="1590" as="sourcePoint"/>
                        <mxPoint x="19.6" y="1350" as="targetPoint"/>
                    </mxGeometry>
                </mxCell>
                <mxCell id="46" value="" style="endArrow=classic;html=1;strokeWidth=5;fontSize=35;entryX=0;entryY=0.5;entryDx=0;entryDy=0;" edge="1" parent="1" target="24">
                    <mxGeometry width="50" height="50" relative="1" as="geometry">
                        <mxPoint x="120" y="1320" as="sourcePoint"/>
                        <mxPoint x="200" y="1310" as="targetPoint"/>
                    </mxGeometry>
                </mxCell>
                <mxCell id="47" value="&lt;b&gt;&lt;u&gt;Input Data&lt;/u&gt;&lt;/b&gt;" style="shape=parallelogram;perimeter=parallelogramPerimeter;whiteSpace=wrap;html=1;fixedSize=1;fontSize=35;fillColor=#60a917;fontColor=#ffffff;strokeColor=#2D7600;" vertex="1" parent="1">
                    <mxGeometry x="-90" y="1290" width="220" height="60" as="geometry"/>
                </mxCell>
            </root>
        </mxGraphModel>
    </diagram>
</mxfile>